<svg xmlns="http://www.w3.org/2000/svg" viewBox="0 0 1440 960" width="1440" height="960" font-family="'SF Mono', 'Fira Code', monospace">
  <defs>
    <linearGradient id="bgGrad" x1="0%" y1="0%" x2="100%" y2="100%">
      <stop offset="0%" style="stop-color:#0A0E1A"/>
      <stop offset="100%" style="stop-color:#0D1525"/>
    </linearGradient>
    <linearGradient id="accentGrad" x1="0%" y1="0%" x2="100%" y2="0%">
      <stop offset="0%" style="stop-color:#00D4FF"/>
      <stop offset="100%" style="stop-color:#7B61FF"/>
    </linearGradient>
    <linearGradient id="barRust" x1="0%" y1="0%" x2="100%" y2="0%">
      <stop offset="0%" style="stop-color:#00D4FF;stop-opacity:0.9"/>
      <stop offset="100%" style="stop-color:#00A8CC;stop-opacity:0.7"/>
    </linearGradient>
    <linearGradient id="barC" x1="0%" y1="0%" x2="100%" y2="0%">
      <stop offset="0%" style="stop-color:#7B61FF;stop-opacity:0.9"/>
      <stop offset="100%" style="stop-color:#5A45CC;stop-opacity:0.7"/>
    </linearGradient>
    <linearGradient id="barCpp" x1="0%" y1="0%" x2="100%" y2="0%">
      <stop offset="0%" style="stop-color:#FF6B6B;stop-opacity:0.9"/>
      <stop offset="100%" style="stop-color:#CC4444;stop-opacity:0.7"/>
    </linearGradient>
    <linearGradient id="barCython" x1="0%" y1="0%" x2="100%" y2="0%">
      <stop offset="0%" style="stop-color:#FFB347;stop-opacity:0.9"/>
      <stop offset="100%" style="stop-color:#CC8822;stop-opacity:0.7"/>
    </linearGradient>
    <linearGradient id="barPython" x1="0%" y1="0%" x2="100%" y2="0%">
      <stop offset="0%" style="stop-color:#4CAF82;stop-opacity:0.9"/>
      <stop offset="100%" style="stop-color:#2E7D55;stop-opacity:0.7"/>
    </linearGradient>
    <linearGradient id="cardGrad" x1="0%" y1="0%" x2="0%" y2="100%">
      <stop offset="0%" style="stop-color:#141C2E"/>
      <stop offset="100%" style="stop-color:#0F1520"/>
    </linearGradient>
    <linearGradient id="runBtn" x1="0%" y1="0%" x2="100%" y2="0%">
      <stop offset="0%" style="stop-color:#00D4FF"/>
      <stop offset="100%" style="stop-color:#7B61FF"/>
    </linearGradient>
    <filter id="glow">
      <feGaussianBlur stdDeviation="3" result="coloredBlur"/>
      <feMerge><feMergeNode in="coloredBlur"/><feMergeNode in="SourceGraphic"/></feMerge>
    </filter>
    <filter id="softShadow">
      <feDropShadow dx="0" dy="4" stdDeviation="8" flood-color="#000" flood-opacity="0.4"/>
    </filter>
    <clipPath id="barClip1"><rect x="0" y="0" width="220" height="20" rx="4"/></clipPath>
    <clipPath id="barClip2"><rect x="0" y="0" width="220" height="20" rx="4"/></clipPath>
  </defs>

  <!-- Background -->
  <rect width="1440" height="960" fill="url(#bgGrad)"/>

  <!-- Subtle grid pattern -->
  <g opacity="0.04">
    <line x1="0" y1="60" x2="1440" y2="60" stroke="#00D4FF" stroke-width="1"/>
    <line x1="0" y1="120" x2="1440" y2="120" stroke="#00D4FF" stroke-width="1"/>
    <line x1="0" y1="180" x2="1440" y2="180" stroke="#00D4FF" stroke-width="1"/>
    <line x1="0" y1="240" x2="1440" y2="240" stroke="#00D4FF" stroke-width="1"/>
    <line x1="0" y1="300" x2="1440" y2="300" stroke="#00D4FF" stroke-width="1"/>
    <line x1="0" y1="360" x2="1440" y2="360" stroke="#00D4FF" stroke-width="1"/>
    <line x1="0" y1="420" x2="1440" y2="420" stroke="#00D4FF" stroke-width="1"/>
    <line x1="0" y1="480" x2="1440" y2="480" stroke="#00D4FF" stroke-width="1"/>
    <line x1="0" y1="540" x2="1440" y2="540" stroke="#00D4FF" stroke-width="1"/>
    <line x1="0" y1="600" x2="1440" y2="600" stroke="#00D4FF" stroke-width="1"/>
    <line x1="0" y1="660" x2="1440" y2="660" stroke="#00D4FF" stroke-width="1"/>
    <line x1="0" y1="720" x2="1440" y2="720" stroke="#00D4FF" stroke-width="1"/>
    <line x1="0" y1="780" x2="1440" y2="780" stroke="#00D4FF" stroke-width="1"/>
    <line x1="0" y1="840" x2="1440" y2="840" stroke="#00D4FF" stroke-width="1"/>
    <line x1="0" y1="900" x2="1440" y2="900" stroke="#00D4FF" stroke-width="1"/>
    <line x1="60" y1="0" x2="60" y2="960" stroke="#00D4FF" stroke-width="1"/>
    <line x1="120" y1="0" x2="120" y2="960" stroke="#00D4FF" stroke-width="1"/>
    <line x1="180" y1="0" x2="180" y2="960" stroke="#00D4FF" stroke-width="1"/>
    <line x1="240" y1="0" x2="240" y2="960" stroke="#00D4FF" stroke-width="1"/>
    <line x1="300" y1="0" x2="300" y2="960" stroke="#00D4FF" stroke-width="1"/>
    <line x1="360" y1="0" x2="360" y2="960" stroke="#00D4FF" stroke-width="1"/>
    <line x1="420" y1="0" x2="420" y2="960" stroke="#00D4FF" stroke-width="1"/>
    <line x1="480" y1="0" x2="480" y2="960" stroke="#00D4FF" stroke-width="1"/>
    <line x1="540" y1="0" x2="540" y2="960" stroke="#00D4FF" stroke-width="1"/>
    <line x1="600" y1="0" x2="600" y2="960" stroke="#00D4FF" stroke-width="1"/>
    <line x1="660" y1="0" x2="660" y2="960" stroke="#00D4FF" stroke-width="1"/>
    <line x1="720" y1="0" x2="720" y2="960" stroke="#00D4FF" stroke-width="1"/>
    <line x1="780" y1="0" x2="780" y2="960" stroke="#00D4FF" stroke-width="1"/>
    <line x1="840" y1="0" x2="840" y2="960" stroke="#00D4FF" stroke-width="1"/>
    <line x1="900" y1="0" x2="900" y2="960" stroke="#00D4FF" stroke-width="1"/>
    <line x1="960" y1="0" x2="960" y2="960" stroke="#00D4FF" stroke-width="1"/>
    <line x1="1020" y1="0" x2="1020" y2="960" stroke="#00D4FF" stroke-width="1"/>
    <line x1="1080" y1="0" x2="1080" y2="960" stroke="#00D4FF" stroke-width="1"/>
    <line x1="1140" y1="0" x2="1140" y2="960" stroke="#00D4FF" stroke-width="1"/>
    <line x1="1200" y1="0" x2="1200" y2="960" stroke="#00D4FF" stroke-width="1"/>
    <line x1="1260" y1="0" x2="1260" y2="960" stroke="#00D4FF" stroke-width="1"/>
    <line x1="1320" y1="0" x2="1320" y2="960" stroke="#00D4FF" stroke-width="1"/>
    <line x1="1380" y1="0" x2="1380" y2="960" stroke="#00D4FF" stroke-width="1"/>
  </g>

  <!-- ========== SIDEBAR ========== -->
  <rect x="0" y="0" width="220" height="960" fill="#0B1220" opacity="0.95"/>
  <rect x="219" y="0" width="1" height="960" fill="#1E2D45"/>

  <!-- Logo area -->
  <rect x="0" y="0" width="220" height="64" fill="#0D1628"/>
  <rect x="0" y="63" width="220" height="1" fill="#1E2D45"/>

  <!-- Logo accent line -->
  <rect x="20" y="22" width="3" height="20" fill="url(#accentGrad)" rx="1.5"/>
  <text x="34" y="31" font-size="11" fill="#00D4FF" font-weight="700" letter-spacing="2">BENCH</text>
  <text x="34" y="46" font-size="11" fill="#7B61FF" font-weight="700" letter-spacing="2">MARK</text>

  <!-- Nav items -->
  <!-- Dashboard (active) -->
  <rect x="12" y="84" width="196" height="36" rx="6" fill="#00D4FF" opacity="0.12"/>
  <rect x="12" y="84" width="3" height="36" rx="1.5" fill="url(#accentGrad)"/>
  <!-- Dashboard icon -->
  <rect x="26" y="96" width="7" height="7" rx="1" fill="#00D4FF" opacity="0.9"/>
  <rect x="35" y="96" width="7" height="7" rx="1" fill="#00D4FF" opacity="0.6"/>
  <rect x="26" y="105" width="7" height="4" rx="1" fill="#00D4FF" opacity="0.6"/>
  <rect x="35" y="103" width="7" height="6" rx="1" fill="#00D4FF" opacity="0.4"/>
  <text x="52" y="107" font-size="12" fill="#00D4FF" font-weight="600" letter-spacing="0.5">Dashboard</text>

  <!-- Run Benchmark -->
  <rect x="12" y="130" width="196" height="36" rx="6" fill="transparent"/>
  <rect x="26" y="142" width="5" height="12" rx="1" fill="#4A5568"/>
  <polygon points="32,142 32,154 40,148" fill="#4A5568"/>
  <text x="52" y="153" font-size="12" fill="#4A5568" letter-spacing="0.5">Run Benchmark</text>

  <!-- History -->
  <rect x="12" y="176" width="196" height="36" rx="6" fill="transparent"/>
  <circle cx="31" cy="194" r="6" fill="none" stroke="#4A5568" stroke-width="1.5"/>
  <line x1="31" y1="191" x2="31" y2="194" stroke="#4A5568" stroke-width="1.5"/>
  <line x1="31" y1="194" x2="34" y2="196" stroke="#4A5568" stroke-width="1.5"/>
  <text x="52" y="199" font-size="12" fill="#4A5568" letter-spacing="0.5">History</text>

  <!-- Settings -->
  <rect x="12" y="222" width="196" height="36" rx="6" fill="transparent"/>
  <circle cx="31" cy="240" r="5" fill="none" stroke="#4A5568" stroke-width="1.5"/>
  <circle cx="31" cy="240" r="2" fill="#4A5568"/>
  <text x="52" y="245" font-size="12" fill="#4A5568" letter-spacing="0.5">Settings</text>

  <!-- Divider -->
  <line x1="20" y1="276" x2="200" y2="276" stroke="#1E2D45" stroke-width="1"/>

  <!-- Language legend -->
  <text x="20" y="296" font-size="9" fill="#3A4A5E" font-weight="600" letter-spacing="2">IMPLEMENTATIONS</text>

  <circle cx="28" cy="316" r="4" fill="#00D4FF"/>
  <text x="40" y="320" font-size="11" fill="#7A8FA8">Rust (PyO3)</text>
  <circle cx="28" cy="338" r="4" fill="#7B61FF"/>
  <text x="40" y="342" font-size="11" fill="#7A8FA8">C Extension</text>
  <circle cx="28" cy="360" r="4" fill="#FF6B6B"/>
  <text x="40" y="364" font-size="11" fill="#7A8FA8">C++ (pybind11)</text>
  <circle cx="28" cy="382" r="4" fill="#FFB347"/>
  <text x="40" y="386" font-size="11" fill="#7A8FA8">Cython</text>
  <circle cx="28" cy="404" r="4" fill="#4CAF82"/>
  <text x="40" y="408" font-size="11" fill="#7A8FA8">Pure Python</text>

  <!-- Divider -->
  <line x1="20" y1="428" x2="200" y2="428" stroke="#1E2D45" stroke-width="1"/>

  <!-- Last run info -->
  <text x="20" y="448" font-size="9" fill="#3A4A5E" font-weight="600" letter-spacing="2">LAST RUN</text>
  <text x="20" y="468" font-size="11" fill="#4A5568">2026-03-05</text>
  <text x="20" y="484" font-size="10" fill="#3A4A5E">100 iterations · 3 scenarios</text>

  <!-- Status indicator -->
  <rect x="20" y="900" width="180" height="32" rx="6" fill="#0D1A2E"/>
  <circle cx="34" cy="916" r="4" fill="#4CAF82"/>
  <circle cx="34" cy="916" r="4" fill="#4CAF82" opacity="0.4">
    <animate attributeName="r" values="4;8;4" dur="2s" repeatCount="indefinite"/>
    <animate attributeName="opacity" values="0.4;0;0.4" dur="2s" repeatCount="indefinite"/>
  </circle>
  <text x="46" y="920" font-size="11" fill="#4CAF82" font-weight="500">System Ready</text>

  <!-- ========== TOP NAV ========== -->
  <rect x="220" y="0" width="1220" height="64" fill="#0B1220" opacity="0.9"/>
  <rect x="220" y="63" width="1220" height="1" fill="#1E2D45"/>

  <text x="240" y="28" font-size="11" fill="#3A4A5E" letter-spacing="1">PYTHON EXTENSION</text>
  <text x="240" y="46" font-size="20" fill="#E2E8F0" font-weight="700" letter-spacing="-0.5">Performance Dashboard</text>

  <!-- Top right controls -->
  <!-- Scenario selector -->
  <rect x="920" y="16" width="140" height="32" rx="6" fill="#141C2E" stroke="#1E2D45" stroke-width="1"/>
  <text x="936" y="36" font-size="11" fill="#7A8FA8">Scenario: </text>
  <text x="990" y="36" font-size="11" fill="#E2E8F0" font-weight="600">Numeric</text>
  <text x="1044" y="35" font-size="14" fill="#4A5568">⌄</text>

  <!-- Run button -->
  <rect x="1076" y="16" width="120" height="32" rx="6" fill="url(#runBtn)" filter="url(#glow)"/>
  <text x="1098" y="36" font-size="12" fill="#0A0E1A" font-weight="700" letter-spacing="1">▶  RUN</text>

  <!-- Refresh icon -->
  <rect x="1212" y="16" width="32" height="32" rx="6" fill="#141C2E" stroke="#1E2D45" stroke-width="1"/>
  <text x="1220" y="36" font-size="14" fill="#4A5568">↻</text>

  <!-- Time range -->
  <rect x="1258" y="16" width="160" height="32" rx="6" fill="#141C2E" stroke="#1E2D45" stroke-width="1"/>
  <text x="1274" y="36" font-size="11" fill="#7A8FA8">Range: </text>
  <text x="1314" y="36" font-size="11" fill="#E2E8F0" font-weight="600">Last 7 days</text>
  <text x="1402" y="35" font-size="14" fill="#4A5568">⌄</text>

  <!-- ========== KPI CARDS ========== -->
  <!-- Card 1: Fastest -->
  <rect x="240" y="84" width="240" height="100" rx="10" fill="url(#cardGrad)" stroke="#1E2D45" stroke-width="1" filter="url(#softShadow)"/>
  <rect x="240" y="84" width="240" height="3" rx="2" fill="url(#accentGrad)"/>
  <text x="260" y="110" font-size="10" fill="#3A4A5E" font-weight="600" letter-spacing="2">FASTEST</text>
  <text x="260" y="144" font-size="28" fill="#00D4FF" font-weight="700" filter="url(#glow)">21.4×</text>
  <text x="260" y="164" font-size="11" fill="#4A5568">Rust vs Pure Python</text>
  <rect x="430" y="108" width="36" height="16" rx="8" fill="#00D4FF" opacity="0.15"/>
  <text x="438" y="120" font-size="9" fill="#00D4FF" font-weight="600">↑ TOP</text>

  <!-- Card 2: Avg Speedup -->
  <rect x="496" y="84" width="240" height="100" rx="10" fill="url(#cardGrad)" stroke="#1E2D45" stroke-width="1" filter="url(#softShadow)"/>
  <rect x="496" y="84" width="240" height="3" rx="2" fill="#7B61FF"/>
  <text x="516" y="110" font-size="10" fill="#3A4A5E" font-weight="600" letter-spacing="2">AVG SPEEDUP</text>
  <text x="516" y="144" font-size="28" fill="#7B61FF" font-weight="700">8.7×</text>
  <text x="516" y="164" font-size="11" fill="#4A5568">Across all implementations</text>
  <rect x="686" y="108" width="36" height="16" rx="8" fill="#7B61FF" opacity="0.15"/>
  <text x="691" y="120" font-size="9" fill="#7B61FF" font-weight="600">AVG</text>

  <!-- Card 3: Memory -->
  <rect x="752" y="84" width="240" height="100" rx="10" fill="url(#cardGrad)" stroke="#1E2D45" stroke-width="1" filter="url(#softShadow)"/>
  <rect x="752" y="84" width="240" height="3" rx="2" fill="#FF6B6B"/>
  <text x="772" y="110" font-size="10" fill="#3A4A5E" font-weight="600" letter-spacing="2">PEAK MEMORY</text>
  <text x="772" y="144" font-size="28" fill="#FF6B6B" font-weight="700">12.3 <tspan font-size="14">MB</tspan></text>
  <text x="772" y="164" font-size="11" fill="#4A5568">Rust (lowest usage)</text>
  <rect x="942" y="108" width="40" height="16" rx="8" fill="#FF6B6B" opacity="0.15"/>
  <text x="947" y="120" font-size="9" fill="#FF6B6B" font-weight="600">MIN</text>

  <!-- Card 4: Runs -->
  <rect x="1008" y="84" width="240" height="100" rx="10" fill="url(#cardGrad)" stroke="#1E2D45" stroke-width="1" filter="url(#softShadow)"/>
  <rect x="1008" y="84" width="240" height="3" rx="2" fill="#FFB347"/>
  <text x="1028" y="110" font-size="10" fill="#3A4A5E" font-weight="600" letter-spacing="2">TOTAL RUNS</text>
  <text x="1028" y="144" font-size="28" fill="#FFB347" font-weight="700">1,500</text>
  <text x="1028" y="164" font-size="11" fill="#4A5568">100 iter × 5 impl × 3 scenarios</text>
  <rect x="1200" y="108" width="34" height="16" rx="8" fill="#FFB347" opacity="0.15"/>
  <text x="1205" y="120" font-size="9" fill="#FFB347" font-weight="600">ALL</text>

  <!-- ========== MAIN CHART: Execution Time Bar Chart ========== -->
  <rect x="240" y="204" width="620" height="360" rx="10" fill="url(#cardGrad)" stroke="#1E2D45" stroke-width="1" filter="url(#softShadow)"/>
  <text x="264" y="234" font-size="13" fill="#E2E8F0" font-weight="700" letter-spacing="0.5">Execution Time Comparison</text>
  <text x="264" y="250" font-size="10" fill="#3A4A5E">Relative score · Pure Python = 1.0x (lower is faster)</text>

  <!-- Chart area -->
  <!-- Y axis labels -->
  <text x="264" y="290" font-size="9" fill="#3A4A5E">1.00</text>
  <text x="264" y="330" font-size="9" fill="#3A4A5E">0.75</text>
  <text x="264" y="370" font-size="9" fill="#3A4A5E">0.50</text>
  <text x="264" y="410" font-size="9" fill="#3A4A5E">0.25</text>
  <text x="264" y="446" font-size="9" fill="#3A4A5E">0.00</text>

  <!-- Horizontal grid lines -->
  <line x1="292" y1="286" x2="840" y2="286" stroke="#1E2D45" stroke-width="1" stroke-dasharray="4,4"/>
  <line x1="292" y1="326" x2="840" y2="326" stroke="#1E2D45" stroke-width="1" stroke-dasharray="4,4"/>
  <line x1="292" y1="366" x2="840" y2="366" stroke="#1E2D45" stroke-width="1" stroke-dasharray="4,4"/>
  <line x1="292" y1="406" x2="840" y2="406" stroke="#1E2D45" stroke-width="1" stroke-dasharray="4,4"/>
  <line x1="292" y1="443" x2="840" y2="443" stroke="#1E2D45" stroke-width="1"/>

  <!-- Bars - Numeric Computation scenario -->
  <!-- Group labels -->
  <text x="330" y="460" font-size="9" fill="#4A5568" text-anchor="middle">Numeric</text>
  <text x="490" y="460" font-size="9" fill="#4A5568" text-anchor="middle">Memory</text>
  <text x="650" y="460" font-size="9" fill="#4A5568" text-anchor="middle">Parallel</text>
  <text x="800" y="460" font-size="9" fill="#4A5568" text-anchor="middle">Average</text>

  <!-- Numeric Computation bars -->
  <!-- Pure Python (full height = baseline) -->
  <rect x="298" y="286" width="20" height="157" rx="3" fill="#4CAF82" opacity="0.8"/>
  <!-- Cython -->
  <rect x="320" y="349" width="20" height="94" rx="3" fill="#FFB347" opacity="0.8"/>
  <!-- C++ -->
  <rect x="342" y="374" width="20" height="69" rx="3" fill="#FF6B6B" opacity="0.8"/>
  <!-- C -->
  <rect x="364" y="386" width="20" height="57" rx="3" fill="#7B61FF" opacity="0.8"/>
  <!-- Rust -->
  <rect x="386" y="398" width="20" height="45" rx="3" fill="#00D4FF" opacity="0.8"/>

  <!-- Memory bars -->
  <rect x="458" y="296" width="20" height="147" rx="3" fill="#4CAF82" opacity="0.8"/>
  <rect x="480" y="358" width="20" height="85" rx="3" fill="#FFB347" opacity="0.8"/>
  <rect x="502" y="371" width="20" height="72" rx="3" fill="#FF6B6B" opacity="0.8"/>
  <rect x="524" y="381" width="20" height="62" rx="3" fill="#7B61FF" opacity="0.8"/>
  <rect x="546" y="393" width="20" height="50" rx="3" fill="#00D4FF" opacity="0.8"/>

  <!-- Parallel bars -->
  <rect x="618" y="286" width="20" height="157" rx="3" fill="#4CAF82" opacity="0.8"/>
  <rect x="640" y="336" width="20" height="107" rx="3" fill="#FFB347" opacity="0.8"/>
  <rect x="662" y="358" width="20" height="85" rx="3" fill="#FF6B6B" opacity="0.8"/>
  <rect x="684" y="364" width="20" height="79" rx="3" fill="#7B61FF" opacity="0.8"/>
  <rect x="706" y="378" width="20" height="65" rx="3" fill="#00D4FF" opacity="0.8"/>

  <!-- Average bars -->
  <rect x="768" y="296" width="20" height="147" rx="3" fill="#4CAF82" opacity="0.8"/>
  <rect x="790" y="347" width="20" height="96" rx="3" fill="#FFB347" opacity="0.8"/>
  <rect x="812" y="368" width="20" height="75" rx="3" fill="#FF6B6B" opacity="0.8"/>

  <!-- Tooltip hint -->
  <rect x="362" y="354" width="100" height="44" rx="6" fill="#0D1A2E" stroke="#00D4FF" stroke-width="1" opacity="0.95"/>
  <text x="412" y="370" font-size="9" fill="#00D4FF" text-anchor="middle" font-weight="600">C Extension</text>
  <text x="412" y="384" font-size="11" fill="#E2E8F0" text-anchor="middle" font-weight="700">0.048×</text>
  <text x="412" y="394" font-size="8" fill="#4A5568" text-anchor="middle">~20.8x faster</text>
  <!-- Tooltip pointer -->
  <polygon points="402,398 412,405 422,398" fill="#0D1A2E" stroke="#00D4FF" stroke-width="1"/>

  <!-- ========== RADDAR / SPIDER CHART ========== -->
  <rect x="876" y="204" width="372" height="360" rx="10" fill="url(#cardGrad)" stroke="#1E2D45" stroke-width="1" filter="url(#softShadow)"/>
  <text x="900" y="234" font-size="13" fill="#E2E8F0" font-weight="700" letter-spacing="0.5">Performance Radar</text>
  <text x="900" y="250" font-size="10" fill="#3A4A5E">Multi-dimensional analysis · higher = better</text>

  <!-- Radar chart center -->
  <!-- Grid hexagons -->
  <g transform="translate(1062, 390)">
    <polygon points="0,-100 86.6,-50 86.6,50 0,100 -86.6,50 -86.6,-50" fill="none" stroke="#1E2D45" stroke-width="1"/>
    <polygon points="0,-70 60.6,-35 60.6,35 0,70 -60.6,35 -60.6,-35" fill="none" stroke="#1E2D45" stroke-width="1"/>
    <polygon points="0,-40 34.6,-20 34.6,20 0,40 -34.6,20 -34.6,-20" fill="none" stroke="#1E2D45" stroke-width="1"/>
    <!-- Axis lines -->
    <line x1="0" y1="0" x2="0" y2="-100" stroke="#1E2D45" stroke-width="1"/>
    <line x1="0" y1="0" x2="86.6" y2="-50" stroke="#1E2D45" stroke-width="1"/>
    <line x1="0" y1="0" x2="86.6" y2="50" stroke="#1E2D45" stroke-width="1"/>
    <line x1="0" y1="0" x2="0" y2="100" stroke="#1E2D45" stroke-width="1"/>
    <line x1="0" y1="0" x2="-86.6" y2="50" stroke="#1E2D45" stroke-width="1"/>
    <line x1="0" y1="0" x2="-86.6" y2="-50" stroke="#1E2D45" stroke-width="1"/>
    <!-- Axis labels -->
    <text x="0" y="-112" font-size="9" fill="#4A5568" text-anchor="middle">CPU Speed</text>
    <text x="100" y="-44" font-size="9" fill="#4A5568" text-anchor="start">Memory</text>
    <text x="100" y="60" font-size="9" fill="#4A5568" text-anchor="start">Parallel</text>
    <text x="0" y="115" font-size="9" fill="#4A5568" text-anchor="middle">Safety</text>
    <text x="-100" y="60" font-size="9" fill="#4A5568" text-anchor="end">Dev Cost</text>
    <text x="-100" y="-44" font-size="9" fill="#4A5568" text-anchor="end">Throughput</text>
    <!-- Rust polygon -->
    <polygon points="0,-95 78,-47 60,50 0,75 -45,28 -70,-43" fill="#00D4FF" fill-opacity="0.15" stroke="#00D4FF" stroke-width="1.5"/>
    <!-- C polygon -->
    <polygon points="0,-90 82,-40 50,45 0,60 -55,32 -80,-38" fill="#7B61FF" fill-opacity="0.1" stroke="#7B61FF" stroke-width="1.5" stroke-dasharray="4,2"/>
    <!-- Python polygon -->
    <polygon points="0,-30 26,-15 26,15 0,30 -26,15 -26,-15" fill="#4CAF82" fill-opacity="0.1" stroke="#4CAF82" stroke-width="1" stroke-dasharray="4,2"/>
  </g>

  <!-- Radar legend -->
  <circle cx="900" cy="518" r="4" fill="#00D4FF"/>
  <text x="912" y="522" font-size="10" fill="#7A8FA8">Rust</text>
  <circle cx="948" cy="518" r="4" fill="#7B61FF"/>
  <text x="960" y="522" font-size="10" fill="#7A8FA8">C Ext</text>
  <circle cx="1000" cy="518" r="4" fill="#4CAF82"/>
  <text x="1012" y="522" font-size="10" fill="#7A8FA8">Python</text>

  <!-- ========== STATS TABLE ========== -->
  <rect x="240" y="584" width="620" height="340" rx="10" fill="url(#cardGrad)" stroke="#1E2D45" stroke-width="1" filter="url(#softShadow)"/>
  <text x="264" y="614" font-size="13" fill="#E2E8F0" font-weight="700" letter-spacing="0.5">Detailed Results</text>
  <text x="264" y="630" font-size="10" fill="#3A4A5E">Numeric computation scenario · 100 iterations</text>

  <!-- Table header -->
  <rect x="240" y="642" width="620" height="28" rx="0" fill="#0D1628"/>
  <line x1="240" y1="642" x2="860" y2="642" stroke="#1E2D45" stroke-width="1"/>
  <text x="264" y="660" font-size="10" fill="#3A4A5E" font-weight="600" letter-spacing="1.5">IMPLEMENTATION</text>
  <text x="460" y="660" font-size="10" fill="#3A4A5E" font-weight="600" letter-spacing="1.5">MIN (ms)</text>
  <text x="546" y="660" font-size="10" fill="#3A4A5E" font-weight="600" letter-spacing="1.5">MEDIAN</text>
  <text x="630" y="660" font-size="10" fill="#3A4A5E" font-weight="600" letter-spacing="1.5">SCORE</text>
  <text x="718" y="660" font-size="10" fill="#3A4A5E" font-weight="600" letter-spacing="1.5">MEM (MB)</text>
  <text x="806" y="660" font-size="10" fill="#3A4A5E" font-weight="600" letter-spacing="1.5">STATUS</text>

  <!-- Row 1: Rust -->
  <rect x="240" y="670" width="620" height="36" fill="#00D4FF" fill-opacity="0.04"/>
  <circle cx="264" cy="688" r="5" fill="#00D4FF"/>
  <text x="278" y="692" font-size="12" fill="#E2E8F0" font-weight="600">Rust (PyO3)</text>
  <text x="460" y="692" font-size="12" fill="#E2E8F0">44.2</text>
  <text x="546" y="692" font-size="12" fill="#E2E8F0">47.8</text>
  <text x="630" y="692" font-size="12" fill="#00D4FF" font-weight="700">0.048×</text>
  <!-- Mini bar -->
  <rect x="718" y="682" width="50" height="8" rx="4" fill="#1E2D45"/>
  <rect x="718" y="682" width="8" height="8" rx="4" fill="#00D4FF"/>
  <text x="773" y="691" font-size="10" fill="#7A8FA8">12.3</text>
  <rect x="806" y="679" width="44" height="16" rx="8" fill="#00D4FF" fill-opacity="0.15"/>
  <text x="815" y="691" font-size="9" fill="#00D4FF" font-weight="600">PASS</text>

  <!-- Row 2: C -->
  <rect x="240" y="706" width="620" height="36" fill="transparent"/>
  <circle cx="264" cy="724" r="5" fill="#7B61FF"/>
  <text x="278" y="728" font-size="12" fill="#E2E8F0" font-weight="600">C Extension</text>
  <text x="460" y="728" font-size="12" fill="#E2E8F0">46.1</text>
  <text x="546" y="728" font-size="12" fill="#E2E8F0">49.2</text>
  <text x="630" y="728" font-size="12" fill="#7B61FF" font-weight="700">0.050×</text>
  <rect x="718" y="718" width="50" height="8" rx="4" fill="#1E2D45"/>
  <rect x="718" y="718" width="9" height="8" rx="4" fill="#7B61FF"/>
  <text x="773" y="727" font-size="10" fill="#7A8FA8">13.1</text>
  <rect x="806" y="715" width="44" height="16" rx="8" fill="#7B61FF" fill-opacity="0.15"/>
  <text x="815" y="727" font-size="9" fill="#7B61FF" font-weight="600">PASS</text>

  <!-- Row 3: C++ -->
  <rect x="240" y="742" width="620" height="36" fill="#FF6B6B" fill-opacity="0.03"/>
  <circle cx="264" cy="760" r="5" fill="#FF6B6B"/>
  <text x="278" y="764" font-size="12" fill="#E2E8F0" font-weight="600">C++ (pybind11)</text>
  <text x="460" y="764" font-size="12" fill="#E2E8F0">51.8</text>
  <text x="546" y="764" font-size="12" fill="#E2E8F0">55.4</text>
  <text x="630" y="764" font-size="12" fill="#FF6B6B" font-weight="700">0.056×</text>
  <rect x="718" y="754" width="50" height="8" rx="4" fill="#1E2D45"/>
  <rect x="718" y="754" width="11" height="8" rx="4" fill="#FF6B6B"/>
  <text x="773" y="763" font-size="10" fill="#7A8FA8">14.7</text>
  <rect x="806" y="751" width="44" height="16" rx="8" fill="#FF6B6B" fill-opacity="0.15"/>
  <text x="815" y="763" font-size="9" fill="#FF6B6B" font-weight="600">PASS</text>

  <!-- Row 4: Cython -->
  <rect x="240" y="778" width="620" height="36" fill="transparent"/>
  <circle cx="264" cy="796" r="5" fill="#FFB347"/>
  <text x="278" y="800" font-size="12" fill="#E2E8F0" font-weight="600">Cython</text>
  <text x="460" y="800" font-size="12" fill="#E2E8F0">98.3</text>
  <text x="546" y="800" font-size="12" fill="#E2E8F0">103.2</text>
  <text x="630" y="800" font-size="12" fill="#FFB347" font-weight="700">0.104×</text>
  <rect x="718" y="790" width="50" height="8" rx="4" fill="#1E2D45"/>
  <rect x="718" y="790" width="20" height="8" rx="4" fill="#FFB347"/>
  <text x="773" y="799" font-size="10" fill="#7A8FA8">21.4</text>
  <rect x="806" y="787" width="44" height="16" rx="8" fill="#FFB347" fill-opacity="0.15"/>
  <text x="815" y="799" font-size="9" fill="#FFB347" font-weight="600">PASS</text>

  <!-- Row 5: Python -->
  <rect x="240" y="814" width="620" height="36" fill="#4CAF82" fill-opacity="0.03"/>
  <circle cx="264" cy="832" r="5" fill="#4CAF82"/>
  <text x="278" y="836" font-size="12" fill="#E2E8F0" font-weight="600">Pure Python</text>
  <text x="460" y="836" font-size="12" fill="#E2E8F0">985.0</text>
  <text x="546" y="836" font-size="12" fill="#E2E8F0">992.4</text>
  <text x="630" y="836" font-size="12" fill="#4CAF82" font-weight="700">1.000×</text>
  <rect x="718" y="826" width="50" height="8" rx="4" fill="#1E2D45"/>
  <rect x="718" y="826" width="50" height="8" rx="4" fill="#4CAF82"/>
  <text x="773" y="835" font-size="10" fill="#7A8FA8">48.2</text>
  <rect x="806" y="823" width="44" height="16" rx="8" fill="#4CAF82" fill-opacity="0.15"/>
  <text x="815" y="835" font-size="9" fill="#4CAF82" font-weight="600">BASE</text>

  <!-- Table footer -->
  <line x1="240" y1="850" x2="860" y2="850" stroke="#1E2D45" stroke-width="1"/>
  <text x="264" y="872" font-size="10" fill="#3A4A5E">Sorted by relative score · Warmup: 10 runs excluded</text>
  <text x="780" y="872" font-size="10" fill="#3A4A5E">Export CSV ↓</text>

  <!-- ========== PARALLEL SCALING CHART ========== -->
  <rect x="876" y="584" width="372" height="340" rx="10" fill="url(#cardGrad)" stroke="#1E2D45" stroke-width="1" filter="url(#softShadow)"/>
  <text x="900" y="614" font-size="13" fill="#E2E8F0" font-weight="700" letter-spacing="0.5">Thread Scaling</text>
  <text x="900" y="630" font-size="10" fill="#3A4A5E">Parallel scenario · ops/sec vs thread count</text>

  <!-- Line chart area -->
  <!-- Y axis -->
  <text x="900" y="660" font-size="8" fill="#3A4A5E">800k</text>
  <text x="900" y="700" font-size="8" fill="#3A4A5E">600k</text>
  <text x="900" y="740" font-size="8" fill="#3A4A5E">400k</text>
  <text x="900" y="780" font-size="8" fill="#3A4A5E">200k</text>
  <text x="900" y="820" font-size="8" fill="#3A4A5E">0</text>

  <!-- Grid lines -->
  <line x1="920" y1="655" x2="1228" y2="655" stroke="#1E2D45" stroke-width="1" stroke-dasharray="3,3"/>
  <line x1="920" y1="695" x2="1228" y2="695" stroke="#1E2D45" stroke-width="1" stroke-dasharray="3,3"/>
  <line x1="920" y1="735" x2="1228" y2="735" stroke="#1E2D45" stroke-width="1" stroke-dasharray="3,3"/>
  <line x1="920" y1="775" x2="1228" y2="775" stroke="#1E2D45" stroke-width="1" stroke-dasharray="3,3"/>
  <line x1="920" y1="815" x2="1228" y2="815" stroke="#1E2D45" stroke-width="1"/>

  <!-- X axis labels -->
  <text x="930" y="830" font-size="8" fill="#3A4A5E" text-anchor="middle">1</text>
  <text x="1000" y="830" font-size="8" fill="#3A4A5E" text-anchor="middle">2</text>
  <text x="1075" y="830" font-size="8" fill="#3A4A5E" text-anchor="middle">4</text>
  <text x="1152" y="830" font-size="8" fill="#3A4A5E" text-anchor="middle">8</text>
  <text x="1220" y="830" font-size="8" fill="#3A4A5E" text-anchor="middle">16</text>
  <text x="1075" y="843" font-size="8" fill="#3A4A5E" text-anchor="middle">Thread Count</text>

  <!-- Rust line (linear scaling) -->
  <polyline points="930,800 1000,760 1075,715 1152,672 1220,658" fill="none" stroke="#00D4FF" stroke-width="2" stroke-linejoin="round"/>
  <circle cx="930" cy="800" r="4" fill="#00D4FF"/>
  <circle cx="1000" cy="760" r="4" fill="#00D4FF"/>
  <circle cx="1075" cy="715" r="4" fill="#00D4FF"/>
  <circle cx="1152" cy="672" r="4" fill="#00D4FF"/>
  <circle cx="1220" cy="658" r="4" fill="#00D4FF"/>

  <!-- C line -->
  <polyline points="930,805 1000,768 1075,728 1152,690 1220,675" fill="none" stroke="#7B61FF" stroke-width="2" stroke-linejoin="round" stroke-dasharray="6,3"/>
  <circle cx="930" cy="805" r="3" fill="#7B61FF"/>
  <circle cx="1220" cy="675" r="3" fill="#7B61FF"/>

  <!-- Python line (GIL - almost flat) -->
  <polyline points="930,780 1000,778 1075,776 1152,775 1220,774" fill="none" stroke="#4CAF82" stroke-width="2" stroke-linejoin="round" stroke-dasharray="3,3"/>
  <circle cx="930" cy="780" r="3" fill="#4CAF82"/>
  <circle cx="1220" cy="774" r="3" fill="#4CAF82"/>

  <!-- GIL annotation -->
  <rect x="1050" y="755" width="90" height="28" rx="4" fill="#0D1A2E" stroke="#4CAF82" stroke-width="1" opacity="0.9"/>
  <text x="1095" y="767" font-size="8" fill="#4CAF82" text-anchor="middle" font-weight="600">GIL Bottleneck</text>
  <text x="1095" y="779" font-size="7" fill="#3A4A5E" text-anchor="middle">flat scaling</text>

  <!-- Legend -->
  <line x1="900" y1="862" x2="918" y2="862" stroke="#00D4FF" stroke-width="2"/>
  <text x="922" y="866" font-size="9" fill="#7A8FA8">Rust</text>
  <line x1="950" y1="862" x2="968" y2="862" stroke="#7B61FF" stroke-width="2" stroke-dasharray="4,2"/>
  <text x="972" y="866" font-size="9" fill="#7A8FA8">C</text>
  <line x1="990" y1="862" x2="1008" y2="862" stroke="#4CAF82" stroke-width="2" stroke-dasharray="2,2"/>
  <text x="1012" y="866" font-size="9" fill="#7A8FA8">Python</text>

  <!-- ========== BOTTOM ACCENT LINE ========== -->
  <rect x="0" y="956" width="1440" height="4" fill="url(#accentGrad)" opacity="0.6"/>

  <!-- Version tag -->
  <text x="1380" y="950" font-size="9" fill="#1E2D45" text-anchor="end">v1.0.0 · wireframe</text>

</svg>
